<svg width="150" height="150" viewBox="0 0 150 150" fill="none" xmlns="http://www.w3.org/2000/svg">
<rect width="50" height="50" fill="#376DA2"/>
<path d="M50 50H100V100H50V50Z" fill="#617D98"/>
<rect y="100" width="50" height="50" fill="#264C71"/>
<rect x="100" width="50" height="50" fill="#87B1D9" fill-opacity="0.91"/>
<rect x="100" y="100" width="50" height="50" fill="#376DA2" fill-opacity="0.22"/>
<path d="M67.2295 130.575C67.2295 129.723 66.9251 129.059 66.3164 128.583C65.7188 128.107 64.6618 127.615 63.1455 127.105C61.6292 126.596 60.3896 126.104 59.4268 125.628C56.2946 124.09 54.7285 121.976 54.7285 119.286C54.7285 117.947 55.1159 116.768 55.8906 115.75C56.6764 114.721 57.7832 113.924 59.2109 113.359C60.6387 112.784 62.2435 112.496 64.0254 112.496C65.763 112.496 67.318 112.806 68.6904 113.426C70.0739 114.046 71.1475 114.931 71.9111 116.082C72.6748 117.222 73.0566 118.528 73.0566 120H67.2461C67.2461 119.015 66.9417 118.251 66.333 117.709C65.7354 117.167 64.9219 116.896 63.8926 116.896C62.8522 116.896 62.0277 117.128 61.4189 117.593C60.8213 118.047 60.5225 118.628 60.5225 119.336C60.5225 119.956 60.8545 120.52 61.5186 121.029C62.1826 121.527 63.3503 122.048 65.0215 122.59C66.6927 123.121 68.0651 123.697 69.1387 124.316C71.7507 125.822 73.0566 127.897 73.0566 130.542C73.0566 132.656 72.2598 134.316 70.666 135.522C69.0723 136.729 66.8864 137.332 64.1084 137.332C62.1494 137.332 60.373 136.983 58.7793 136.286C57.1966 135.578 56.0013 134.615 55.1934 133.397C54.3965 132.169 53.998 130.758 53.998 129.164H59.8418C59.8418 130.459 60.1738 131.416 60.8379 132.036C61.513 132.645 62.6032 132.949 64.1084 132.949C65.0713 132.949 65.8294 132.744 66.3828 132.335C66.9473 131.914 67.2295 131.328 67.2295 130.575ZM81.6895 137H76.0781V119.037H81.6895V137ZM75.7461 114.405C75.7461 113.608 76.0339 112.955 76.6094 112.446C77.1849 111.937 77.932 111.683 78.8506 111.683C79.7692 111.683 80.5163 111.937 81.0918 112.446C81.6673 112.955 81.9551 113.608 81.9551 114.405C81.9551 115.202 81.6673 115.855 81.0918 116.364C80.5163 116.873 79.7692 117.128 78.8506 117.128C77.932 117.128 77.1849 116.873 76.6094 116.364C76.0339 115.855 75.7461 115.202 75.7461 114.405ZM91.0527 137H85.4414V111.5H91.0527V137ZM101.678 130.343L104.517 119.037H110.41L104.55 137H98.8389L92.9785 119.037H98.8887L101.678 130.343ZM117.98 137H112.369V119.037H117.98V137ZM112.037 114.405C112.037 113.608 112.325 112.955 112.9 112.446C113.476 111.937 114.223 111.683 115.142 111.683C116.06 111.683 116.807 111.937 117.383 112.446C117.958 112.955 118.246 113.608 118.246 114.405C118.246 115.202 117.958 115.855 117.383 116.364C116.807 116.873 116.06 117.128 115.142 117.128C114.223 117.128 113.476 116.873 112.9 116.364C112.325 115.855 112.037 115.202 112.037 114.405ZM132.142 135.058C130.957 136.574 129.358 137.332 127.344 137.332C125.374 137.332 123.88 136.762 122.861 135.622C121.854 134.471 121.351 132.822 121.351 130.675V119.037H126.945V130.708C126.945 132.246 127.692 133.016 129.187 133.016C130.47 133.016 131.383 132.556 131.926 131.638V119.037H137.554V137H132.308L132.142 135.058Z" fill="#0E0D0D" fill-opacity="0.93"/>
</svg>
